<?xml version="1.0" encoding="UTF-8" standalone="no"?>
<svg
   xmlns:dc="http://purl.org/dc/elements/1.1/"
   xmlns:cc="http://creativecommons.org/ns#"
   xmlns:rdf="http://www.w3.org/1999/02/22-rdf-syntax-ns#"
   xmlns:svg="http://www.w3.org/2000/svg"
   xmlns="http://www.w3.org/2000/svg"
   version="1.1"
   id="svg2"
   viewBox="0 0 210.40824 172.9032"
   height="172.9032"
   width="210.40823">
  <defs
     id="defs4" />
  <metadata
     id="metadata7">
    <rdf:RDF>
      <cc:Work
         rdf:about="">
        <dc:format>image/svg+xml</dc:format>
        <dc:type
           rdf:resource="http://purl.org/dc/dcmitype/StillImage" />
        <dc:title></dc:title>
      </cc:Work>
    </rdf:RDF>
  </metadata>
  <g
     transform="translate(-338.22448,-356.21746)"
     style="display:inline"
     id="layer4" />
  <g
     transform="translate(-338.22448,-356.21746)"
     style="display:inline"
     id="layer10" />
  <g
     transform="translate(-338.22448,-356.21746)"
     style="display:inline"
     id="layer5">
    <g
       transform="matrix(0.82014638,0,0,0.80920608,73.752713,82.722254)"
       id="g6046">
      <path
         style="display:inline;fill:none;fill-rule:evenodd;stroke:#000000;stroke-width:8;stroke-linecap:round;stroke-linejoin:miter;stroke-miterlimit:4;stroke-dasharray:none;stroke-opacity:1"
         d="m 512,482.3622 0,40 0,0"
         id="path5920" />
      <path
         style="fill:none;fill-rule:evenodd;stroke:#000000;stroke-width:8;stroke-linecap:round;stroke-linejoin:miter;stroke-miterlimit:4;stroke-dasharray:none;stroke-opacity:1"
         d="m 439,363.3622 1,119"
         id="path4265" />
      <path
         style="display:inline;fill:none;fill-rule:evenodd;stroke:#000000;stroke-width:8;stroke-linecap:round;stroke-linejoin:miter;stroke-miterlimit:4;stroke-dasharray:none;stroke-opacity:1"
         d="m 371,483.3622 c -1,49 69,49 69,-2 0,-49 70,-49 72,1"
         id="path4262" />
    </g>
  </g>
  <g
     transform="translate(-338.22448,-356.21746)"
     style="display:inline"
     id="layer9">
    <path
       id="path5915"
       d="m 511.9245,361.96017 c 20,30 -10,71.1127 10,81.1127 -20,10 10,51.01219 -10,81.01219"
       style="fill:none;fill-rule:evenodd;stroke:#000000;stroke-width:6;stroke-linecap:round;stroke-linejoin:miter;stroke-miterlimit:4;stroke-dasharray:none;stroke-opacity:1" />
    <path
       style="fill:none;fill-rule:evenodd;stroke:#000000;stroke-width:6;stroke-linecap:round;stroke-linejoin:miter;stroke-miterlimit:4;stroke-dasharray:none;stroke-opacity:1"
       d="m 364.93268,361.25306 c -20,30 10,71.1127 -10,81.1127 20,10 -10,51.01219 10,81.01219"
       id="path5917" />
  </g>
</svg>
