<?xml version="1.0" encoding="UTF-8" standalone="no"?>
<!-- Created with Inkscape (http://www.inkscape.org/) -->

<svg
   xmlns:dc="http://purl.org/dc/elements/1.1/"
   xmlns:cc="http://creativecommons.org/ns#"
   xmlns:rdf="http://www.w3.org/1999/02/22-rdf-syntax-ns#"
   xmlns:svg="http://www.w3.org/2000/svg"
   xmlns="http://www.w3.org/2000/svg"
   xmlns:sodipodi="http://sodipodi.sourceforge.net/DTD/sodipodi-0.dtd"
   xmlns:inkscape="http://www.inkscape.org/namespaces/inkscape"
   width="210mm"
   height="297mm"
   viewBox="0 0 744.09448819 1052.3622047"
   id="svg2"
   version="1.1"
   inkscape:version="0.91 r13725"
   sodipodi:docname="drawing.svg">
  <defs
     id="defs4">
    <inkscape:path-effect
       effect="skeletal"
       id="path-effect4229"
       is_visible="true"
       pattern="M 0,5 C 0,2.24 2.24,0 5,0 7.76,0 10,2.24 10,5 10,7.76 7.76,10 5,10 2.24,10 0,7.76 0,5 Z"
       copytype="single_stretched"
       prop_scale="1"
       scale_y_rel="false"
       spacing="0"
       normal_offset="0"
       tang_offset="0"
       prop_units="false"
       vertical_pattern="false"
       fuse_tolerance="0" />
    <inkscape:path-effect
       effect="skeletal"
       id="path-effect4224"
       is_visible="true"
       pattern="M 0,5 C 0,2.24 2.24,0 5,0 7.76,0 10,2.24 10,5 10,7.76 7.76,10 5,10 2.24,10 0,7.76 0,5 Z"
       copytype="single_stretched"
       prop_scale="1"
       scale_y_rel="false"
       spacing="0"
       normal_offset="0"
       tang_offset="0"
       prop_units="false"
       vertical_pattern="false"
       fuse_tolerance="0" />
    <inkscape:path-effect
       effect="spiro"
       id="path-effect4222"
       is_visible="true" />
  </defs>
  <sodipodi:namedview
     id="base"
     pagecolor="#ffffff"
     bordercolor="#666666"
     borderopacity="1.0"
     inkscape:pageopacity="0.0"
     inkscape:pageshadow="2"
     inkscape:zoom="1"
     inkscape:cx="559.5368"
     inkscape:cy="332.00289"
     inkscape:document-units="px"
     inkscape:current-layer="layer7"
     showgrid="true"
     inkscape:window-width="2560"
     inkscape:window-height="1317"
     inkscape:window-x="0"
     inkscape:window-y="1"
     inkscape:window-maximized="1">
    <inkscape:grid
       type="xygrid"
       id="grid4260" />
  </sodipodi:namedview>
  <metadata
     id="metadata7">
    <rdf:RDF>
      <cc:Work
         rdf:about="">
        <dc:format>image/svg+xml</dc:format>
        <dc:type
           rdf:resource="http://purl.org/dc/dcmitype/StillImage" />
        <dc:title></dc:title>
      </cc:Work>
    </rdf:RDF>
  </metadata>
  <g
     inkscape:label="Layer 1"
     inkscape:groupmode="layer"
     id="layer1"
     sodipodi:insensitive="true">
    <text
       xml:space="preserve"
       style="font-style:normal;font-weight:normal;font-size:180px;line-height:125%;font-family:sans-serif;letter-spacing:0px;word-spacing:0px;fill:#000000;fill-opacity:1;stroke:none;stroke-width:1px;stroke-linecap:butt;stroke-linejoin:miter;stroke-opacity:1"
       x="237.14285"
       y="289.50507"
       id="text4136"
       sodipodi:linespacing="125%"><tspan
         sodipodi:role="line"
         id="tspan4138"
         x="237.14285"
         y="289.50507" /></text>
    <path
       style="font-style:normal;font-variant:normal;font-weight:normal;font-stretch:normal;font-size:180px;line-height:126.99999809%;font-family:Papyrus;-inkscape-font-specification:Papyrus;letter-spacing:0px;word-spacing:0px;fill:#000000;fill-opacity:1;stroke:none;stroke-width:1px;stroke-linecap:butt;stroke-linejoin:miter;stroke-opacity:1"
       d="m 247.98828,236.69336 0,99 c 0,2.64 -0.17906,5.04117 -0.53906,7.20117 -0.24,2.28 -0.78109,4.19977 -1.6211,5.75977 -0.83999,1.56 -2.0396,2.75961 -3.5996,3.59961 -1.56,0.96 -3.59915,1.43945 -6.11914,1.43945 -1.2,0 -2.52094,-0.11938 -3.96094,-0.35938 -1.32,-0.12 -2.5793,-0.3607 -3.7793,-0.7207 l -1.80078,10.25977 c 1.56,0.48 3.24102,0.78039 5.04102,0.90039 1.8,0.24 3.35968,0.35937 4.67968,0.35937 4.8,0 8.69922,-0.77984 11.69922,-2.33984 3.12,-1.44 5.58086,-3.41945 7.38086,-5.93945 1.8,-2.4 3.0593,-5.21899 3.7793,-8.45899 0.72,-3.12 1.08008,-6.3607 1.08008,-9.7207 l 0,-100.98047 -12.24024,0 z"
       id="text4144"
       inkscape:connector-curvature="0" />
    <text
       xml:space="preserve"
       style="font-style:normal;font-weight:normal;font-size:180px;line-height:125%;font-family:sans-serif;letter-spacing:0px;word-spacing:0px;fill:#000000;fill-opacity:1;stroke:none;stroke-width:1px;stroke-linecap:butt;stroke-linejoin:miter;stroke-opacity:1"
       x="300"
       y="435.21936"
       id="text4148"
       sodipodi:linespacing="125%"><tspan
         sodipodi:role="line"
         id="tspan4150"
         x="300"
         y="435.21936" /><tspan
         sodipodi:role="line"
         x="300"
         y="660.21936"
         id="tspan4152"
         style="font-style:normal;font-variant:normal;font-weight:normal;font-stretch:normal;font-family:EngraverTime;-inkscape-font-specification:EngraverTime" /></text>
    <text
       xml:space="preserve"
       style="font-style:normal;font-weight:normal;font-size:180px;line-height:125%;font-family:sans-serif;letter-spacing:0px;word-spacing:0px;fill:#000000;fill-opacity:1;stroke:none;stroke-width:1px;stroke-linecap:butt;stroke-linejoin:miter;stroke-opacity:1"
       x="317.14285"
       y="320.93362"
       id="text4154"
       sodipodi:linespacing="125%"><tspan
         sodipodi:role="line"
         id="tspan4156"
         x="317.14285"
         y="320.93362"
         style="font-style:normal;font-variant:normal;font-weight:normal;font-stretch:normal;font-family:'Avenir Next';-inkscape-font-specification:'Avenir Next'" /></text>
  </g>
  <g
     inkscape:groupmode="layer"
     id="layer2"
     inkscape:label="Layer 2"
     sodipodi:insensitive="true">
    <path
       style="font-style:normal;font-weight:normal;font-size:180px;line-height:125%;font-family:sans-serif;letter-spacing:0px;word-spacing:0px;fill:#000000;fill-opacity:1;stroke:none;stroke-width:1px;stroke-linecap:butt;stroke-linejoin:miter;stroke-opacity:1"
       d="m 247.98828,237.13867 0,90.22461 c 2.11712,-3.05683 4.55303,-5.47373 6.66992,-4.51562 0.79917,0.3617 1.53759,0.81015 2.2461,1.29882 0.37172,-0.2294 0.55518,-0.33981 0.99218,-0.61328 1.11371,-0.63385 2.04844,-1.14435 2.90625,-1.58593 0.35977,-2.35243 0.88583,-4.52416 1.58594,-6.50782 1.44,-4.2 3.35977,-7.61976 5.75977,-10.25976 2.4,-2.76 5.09961,-4.8011 8.09961,-6.1211 3.12,-1.32 6.30101,-1.97851 9.54101,-1.97851 4.44,0 8.10047,0.72015 10.98047,2.16015 3,1.44 5.33953,3.47915 7.01953,6.11915 1.8,2.51999 3.0593,5.57968 3.7793,9.17968 0.72,3.6 1.08008,7.62055 1.08008,12.06055 l 0,18.33789 c 1.09242,-0.0686 2.18396,-0.1067 3.27344,-0.0215 1.53093,0.11976 3.47724,0.60486 5.43164,1.20703 1.03498,-0.0112 2.59089,-0.0258 3.53515,-0.0332 l 0,-24.53125 c 0,-10.44 -2.69961,-18.83922 -8.09961,-25.19921 -5.28,-6.36001 -13.2614,-9.53907 -23.9414,-9.53907 -6,0 -11.63993,1.43836 -16.91993,4.31836 -5.28,2.88 -9.05984,6.78117 -11.33984,11.70117 l -0.35937,0 0,-65.70117 -12.24024,0 z"
       id="text4159"
       inkscape:connector-curvature="0" />
  </g>
  <g
     inkscape:groupmode="layer"
     id="layer3"
     inkscape:label="Layer 3"
     sodipodi:insensitive="true">
    <path
       style="fill:none;fill-rule:evenodd;stroke:#000000;stroke-width:1px;stroke-linecap:butt;stroke-linejoin:miter;stroke-opacity:1"
       d="m 107.48023,775.17635 c 0.37208,115.76016 132.98869,116.68814 131.52186,1.41421 l -5.65685,-217.78889 0,-2.82843"
       id="path4231"
       inkscape:connector-curvature="0"
       sodipodi:nodetypes="cccc" />
    <path
       style="fill:none;fill-rule:evenodd;stroke:#000000;stroke-width:1px;stroke-linecap:butt;stroke-linejoin:miter;stroke-opacity:1"
       d="m 239.00209,762.44843 c -0.41936,-115.63221 116.32184,-119.66091 117.37972,2.82842"
       id="path4233"
       inkscape:connector-curvature="0"
       sodipodi:nodetypes="cc" />
  </g>
  <g
     inkscape:groupmode="layer"
     id="layer4"
     inkscape:label="Layer 4"
     sodipodi:insensitive="true">
    <path
       style="fill:none;fill-rule:evenodd;stroke:#000000;stroke-width:8;stroke-linecap:round;stroke-linejoin:miter;stroke-miterlimit:4;stroke-dasharray:none;stroke-opacity:1"
       d="m 371,483.3622 c -1,49 69,49 69,-2 0,-49 70,-49 72,1"
       id="path4262"
       inkscape:connector-curvature="0"
       sodipodi:nodetypes="ccc" />
  </g>
  <g
     inkscape:groupmode="layer"
     id="layer5"
     inkscape:label="Layer 5"
     sodipodi:insensitive="true">
    <path
       style="fill:none;fill-rule:evenodd;stroke:#000000;stroke-width:8;stroke-linecap:round;stroke-linejoin:miter;stroke-miterlimit:4;stroke-dasharray:none;stroke-opacity:1"
       d="m 439,363.3622 1,119"
       id="path4265"
       inkscape:connector-curvature="0"
       sodipodi:nodetypes="cc" />
  </g>
  <g
     inkscape:groupmode="layer"
     id="layer6"
     inkscape:label="Layer 6"
     sodipodi:insensitive="true"
     style="display:inline">
    <ellipse
       style="opacity:0.98799995;fill:none;fill-opacity:1;fill-rule:evenodd;stroke:#000000;stroke-width:7.30852985;stroke-linecap:round;stroke-linejoin:miter;stroke-miterlimit:4;stroke-dasharray:none;stroke-dashoffset:0;stroke-opacity:1"
       id="path4274"
       cx="440"
       cy="455.36221"
       rx="87.345734"
       ry="105.34573" />
  </g>
  <g
     inkscape:groupmode="layer"
     id="layer7"
     inkscape:label="Layer 7"
     style="display:inline">
    <path
       style="fill:none;fill-rule:evenodd;stroke:#000000;stroke-width:8;stroke-linecap:round;stroke-linejoin:miter;stroke-opacity:1;stroke-miterlimit:4;stroke-dasharray:none"
       d="m 502,682.3622 c -27.01631,33.33333 -23.60236,66.66667 0,100 l 0,0 0,0"
       id="path4290"
       inkscape:connector-curvature="0"
       sodipodi:nodetypes="cccc" />
  </g>
</svg>
